<?xml version="1.0" standalone="no"?><svg xmlns="http://www.w3.org/2000/svg" viewBox="0 0 1440 320"><path fill="#f3f4f5" fill-opacity="1" d="M0,192L34.3,176C68.6,160,137,128,206,138.7C274.3,149,343,203,411,229.3C480,256,549,256,617,234.7C685.7,213,754,171,823,133.3C891.4,96,960,64,1029,64C1097.1,64,1166,96,1234,117.3C1302.9,139,1371,149,1406,154.7L1440,160L1440,320L1405.7,320C1371.4,320,1303,320,1234,320C1165.7,320,1097,320,1029,320C960,320,891,320,823,320C754.3,320,686,320,617,320C548.6,320,480,320,411,320C342.9,320,274,320,206,320C137.1,320,69,320,34,320L0,320Z"></path></svg>